<?xml version="1.0" encoding="utf-8"?>
<!-- Generator: Adobe Illustrator 23.0.3, SVG Export Plug-In . SVG Version: 6.00 Build 0)  -->
<svg version="1.1" id="Capa_1" xmlns="http://www.w3.org/2000/svg" xmlns:xlink="http://www.w3.org/1999/xlink" x="0px" y="0px"
	 viewBox="0 0 496 496" style="enable-background:new 0 0 496 496;" xml:space="preserve">
<style type="text/css">
	.st0{fill:#42E0E8;}
	.st1{opacity:0.75;fill:#FFFFFF;}
	.st2{fill:#68A4E0;}
</style>
<circle class="st0" cx="248" cy="200" r="120"/>
<path class="st1" d="M480,241.5v-67c9.3-3.3,16-12.1,16-22.5c0-13.2-10.8-24-24-24c-2.8,0-5.4,0.6-7.8,1.4l-35.8-44.8
	c2.3-3.7,3.7-8,3.7-12.6c0-13.2-10.8-24-24-24c-6.7,0-12.8,2.8-17.2,7.3l-63.1-29.1c0.1-0.7,0.2-1.4,0.2-2.2c0-13.2-10.8-24-24-24
	c-10.4,0-19.2,6.7-22.5,16h-90.9C187.2,6.7,178.4,0,168,0c-13.2,0-24,10.8-24,24c0,1,0.2,1.9,0.3,2.9l-39.7,19.8
	C100.3,42.6,94.5,40,88,40c-13.2,0-24,10.8-24,24c0,4.6,1.4,8.9,3.7,12.6l-35.8,44.8c-2.5-0.9-5.1-1.4-7.8-1.4
	c-13.2,0-24,10.8-24,24c0,10.4,6.7,19.2,16,22.5v51C6.7,220.8,0,229.6,0,240c0,13.2,10.8,24,24,24c8.9,0,16.6-4.9,20.7-12.1
	l43.7,7.9c1.8,11.4,11.7,20.2,23.6,20.2c0.3,0,0.6-0.1,0.9-0.1l15.3,38.2c-5,4.4-8.2,10.8-8.2,17.9c0,13.2,10.8,24,24,24
	c8,0,15.1-4,19.5-10.1l68.7,19.6c0.6,9.7,7,17.9,15.8,21v59c-9.3,3.3-16,12.1-16,22.5c0,13.2,10.8,24,24,24s24-10.8,24-24
	c0-10.4-6.7-19.2-16-22.5v-59c9.3-3.3,16-12.1,16-22.5c0-7.7-3.7-14.4-9.3-18.8l9.6-28.7l71.8,23.9c0.2,10.2,6.8,18.8,16,22.1v83
	c-9.3,3.3-16,12.1-16,22.5c0,13.2,10.8,24,24,24s24-10.8,24-24c0-10.4-6.7-19.2-16-22.5v-82.9c9.3-3.3,16-12.1,16-22.5
	c0-2.9-0.6-5.7-1.6-8.3l61.4-51.2c3.6,2.1,7.7,3.4,12.2,3.4c13.2,0,24-10.8,24-24C496,253.6,489.3,244.8,480,241.5z M136,255.6
	c0-1-0.2-1.9-0.3-2.8l65.6-34l20.3,65.4L136,255.6z M118.1,232.9l-11.1-85l54.8-2.7c3.5,8.4,11.6,14.4,21.2,14.8l13.4,43.3
	l-68.1,35.3C125.5,235.8,122,233.9,118.1,232.9z M46.2,134.9c-0.5-1.2-1.2-2.4-1.8-3.5l35.8-44.8c0.9,0.3,1.8,0.7,2.8,0.9l5.9,45.3
	L46.2,134.9z M98.8,85.3c7.8-4,13.2-12,13.2-21.3c0-1-0.2-1.9-0.3-2.9l39.7-19.8c4.3,4.2,10.2,6.7,16.6,6.7c4.9,0,9.5-1.5,13.3-4
	L231,81.2l-36,33.6c-3.3-1.7-7-2.8-11-2.8c-10.8,0-19.9,7.3-22.9,17.1l-56.2,2.8L98.8,85.3z M282,33.6l-39.2,36.6L192,32h89.5
	C281.7,32.5,281.8,33.1,282,33.6z M304.3,147.3L240,180.6l-34.4-34.4c1.5-3.1,2.4-6.6,2.4-10.3c0-3.4-0.7-6.6-2-9.6L244,91
	l61.2,45.9c-0.7,2.3-1.2,4.6-1.2,7.1C304,145.1,304.2,146.2,304.3,147.3z M192,136c0,4.4-3.6,8-8,8s-8-3.6-8-8s3.6-8,8-8
	S192,131.6,192,136z M225.1,188.4l-14.2,7.3l-9.7-31.2L225.1,188.4z M215.7,211.2l21.2-11l37.5,37.5c-1.5,3.1-2.4,6.6-2.4,10.3
	c0,7.7,3.7,14.4,9.3,18.8l-11.2,33.5l-29.9-10L215.7,211.2z M296,256c-4.4,0-8-3.6-8-8s3.6-8,8-8s8,3.6,8,8S300.4,256,296,256z
	 M296,224c-3.7,0-7.2,0.9-10.3,2.4l-33.9-33.9l59.8-31c4.3,4,10,6.5,16.3,6.5c4.5,0,8.6-1.3,12.2-3.4l36.4,30.4l-64.7,35.3
	C307.7,226.4,302.1,224,296,224z M396.6,93c3.4,1.9,7.2,3,11.4,3c2.8,0,5.4-0.6,7.8-1.4l35.8,44.8c-2.3,3.7-3.7,8-3.7,12.6
	c0,1.3,0.2,2.5,0.4,3.8l-56.7,30.9l-41.3-34.4c1-2.6,1.6-5.4,1.6-8.3c0-3.3-0.7-6.4-1.8-9.2L396.6,93z M459.8,243.4l-54.9-45.7
	l51.1-27.9c2.3,2.1,5,3.7,7.9,4.7v67C462.5,242,461.1,242.6,459.8,243.4z M336,144c0,4.4-3.6,8-8,8s-8-3.6-8-8s3.6-8,8-8
	S336,139.6,336,144z M389.8,205.9l57.3,47.8l-124.2-11.3L389.8,205.9z M480,152c0,4.4-3.6,8-8,8s-8-3.6-8-8s3.6-8,8-8
	S480,147.6,480,152z M408,64c4.4,0,8,3.6,8,8s-3.6,8-8,8s-8-3.6-8-8S403.6,64,408,64z M384.2,69.8c-0.1,0.7-0.2,1.4-0.2,2.2
	c0,3.3,0.7,6.4,1.8,9.2L339.4,123c-3.4-1.9-7.2-3-11.4-3c-4.9,0-9.5,1.5-13.3,4l-58.9-44.2L293,45.2c3.3,1.7,7,2.8,11,2.8
	c6.7,0,12.8-2.8,17.2-7.3L384.2,69.8z M304,16c4.4,0,8,3.6,8,8s-3.6,8-8,8s-8-3.6-8-8S299.6,16,304,16z M168,16c4.4,0,8,3.6,8,8
	s-3.6,8-8,8s-8-3.6-8-8S163.6,16,168,16z M88,56c4.4,0,8,3.6,8,8s-3.6,8-8,8s-8-3.6-8-8S83.6,56,88,56z M24,136c4.4,0,8,3.6,8,8
	s-3.6,8-8,8s-8-3.6-8-8S19.6,136,24,136z M24,248c-4.4,0-8-3.6-8-8s3.6-8,8-8s8,3.6,8,8S28.4,248,24,248z M32,217.5v-51
	c7.2-2.6,12.7-8.4,14.9-15.7l44.1-2.2l11.2,85.5c-4.6,2.1-8.3,5.6-10.8,9.9l-43.7-7.9C46.2,227.5,40.1,220.4,32,217.5z M104,256
	c0-4.4,3.6-8,8-8s8,3.6,8,8c0,4.4-3.6,8-8,8S104,260.4,104,256z M127.8,273.9c1.1-1,2.1-2.1,3-3.2l96.6,32.2l14.3,45.9
	c-2,1.5-3.7,3.2-5.2,5.3l-68.7-19.6C167.1,322,156.7,312,144,312c-0.3,0-0.6,0.1-0.9,0.1L127.8,273.9z M144,344c-4.4,0-8-3.6-8-8
	s3.6-8,8-8s8,3.6,8,8S148.4,344,144,344z M256,480c-4.4,0-8-3.6-8-8s3.6-8,8-8c4.4,0,8,3.6,8,8S260.4,480,256,480z M256,376
	c-4.4,0-8-3.6-8-8s3.6-8,8-8c4.4,0,8,3.6,8,8S260.4,376,256,376z M256.3,341.9l-10.2-32.8l19,6.3L256.3,341.9z M296.5,272
	c9.5-0.2,17.6-5.8,21.3-13.9l131.1,11.9c0.2,0.8,0.4,1.6,0.7,2.4l-61.4,51.2c-3.6-2.1-7.7-3.4-12.2-3.4c-7.7,0-14.4,3.7-18.8,9.3
	l-71.9-24L296.5,272z M376,480c-4.4,0-8-3.6-8-8s3.6-8,8-8s8,3.6,8,8S380.4,480,376,480z M376,352c-4.4,0-8-3.6-8-8s3.6-8,8-8
	s8,3.6,8,8S380.4,352,376,352z M472,272c-4.4,0-8-3.6-8-8s3.6-8,8-8s8,3.6,8,8S476.4,272,472,272z"/>
<g>
	<rect x="16" class="st2" width="16" height="16"/>
	<rect x="16" y="32" class="st2" width="16" height="16"/>
	<rect x="32" y="16" class="st2" width="16" height="16"/>
	<rect x="0" y="16" class="st2" width="16" height="16"/>
	<rect x="416" y="368" class="st2" width="16" height="16"/>
	<rect x="416" y="400" class="st2" width="16" height="16"/>
	<rect x="432" y="384" class="st2" width="16" height="16"/>
	<rect x="400" y="384" class="st2" width="16" height="16"/>
	<rect x="464" y="32" class="st2" width="16" height="16"/>
	<rect x="464" y="64" class="st2" width="16" height="16"/>
	<rect x="480" y="48" class="st2" width="16" height="16"/>
	<rect x="448" y="48" class="st2" width="16" height="16"/>
	<rect x="96" y="384" class="st2" width="16" height="16"/>
	<rect x="96" y="416" class="st2" width="16" height="16"/>
	<rect x="112" y="400" class="st2" width="16" height="16"/>
	<rect x="80" y="400" class="st2" width="16" height="16"/>
	<rect x="48" y="296" class="st2" width="16" height="16"/>
	<rect x="48" y="328" class="st2" width="16" height="16"/>
	<rect x="64" y="312" class="st2" width="16" height="16"/>
	<rect x="32" y="312" class="st2" width="16" height="16"/>
</g>
</svg>
