<?xml version="1.0" encoding="utf-8"?>
<!-- Generator: Adobe Illustrator 23.0.3, SVG Export Plug-In . SVG Version: 6.00 Build 0)  -->
<svg version="1.1" id="Layer_5" xmlns="http://www.w3.org/2000/svg" xmlns:xlink="http://www.w3.org/1999/xlink" x="0px" y="0px"
	 viewBox="0 0 512 512" style="enable-background:new 0 0 512 512;" xml:space="preserve">
<style type="text/css">
	.st0{fill:#FFFFFF;}
</style>
<g>
	<path class="st0" d="M280,424h144V280H280V424z M296,296h112v112H296V296z"/>
	<path class="st0" d="M440,248v-48h-48v48h-16v-48h-30.1c8.8-11,14.1-24.9,14.1-40c0-18.9-8.4-36.2-22-48h62c4.4,0,8,3.6,8,8v17.5
		c-9.3,3.3-16,12.1-16,22.5c0,13.2,10.8,24,24,24s24-10.8,24-24c0-10.4-6.7-19.2-16-22.5V120c0-13.2-10.8-24-24-24h-85.6
		c-2.9-6.1-6.7-11.4-11.4-16H464c4.4,0,8,3.6,8,8v17.5c-9.3,3.3-16,12.1-16,22.5c0,13.2,10.8,24,24,24s24-10.8,24-24
		c0-10.4-6.7-19.2-16-22.5V88c0-13.2-10.8-24-24-24H264v0.1c-0.6,0-1.2-0.1-1.8-0.1C254.9,31.6,226,8,192,8
		c-28.4,0-53.8,16.6-65.4,41.9C121.8,48.6,117,48,112,48c-28.6,0-52.3,21.6-55.6,50C28.4,105,8,130.6,8,160
		c0,23.6,12.9,44.3,32,55.3V400c0,13.2,10.8,24,24,24h41.5c3.3,9.3,12.1,16,22.5,16c13.2,0,24-10.8,24-24s-10.8-24-24-24
		c-10.4,0-19.2,6.7-22.5,16H64c-4.4,0-8-3.6-8-8V221.9c5.1,1.3,10.5,2.1,16,2.1v112c0,13.2,10.8,24,24,24h25.5
		c3.3,9.3,12.1,16,22.5,16c13.2,0,24-10.8,24-24s-10.8-24-24-24c-10.4,0-19.2,6.7-22.5,16H96c-4.4,0-8-3.6-8-8V224h16v48
		c0,13.2,10.8,24,24,24h9.5c3.3,9.3,12.1,16,22.5,16c13.2,0,24-10.8,24-24s-10.8-24-24-24c-10.4,0-19.2,6.7-22.5,16H128
		c-4.4,0-8-3.6-8-8v-48h144v24c-8.8,0-16,7.2-16,16h-48v48h48v16h-48v48h48v16h-48v48h48c0,8.8,7.2,16,16,16v48h48v-48h16v48h48v-48
		h16v48h48v-48c8.8,0,16-7.2,16-16h48v-48h-48v-16h48v-48h-48v-16h48v-48h-48C456,255.2,448.8,248,440,248z M416,168
		c-4.4,0-8-3.6-8-8s3.6-8,8-8s8,3.6,8,8S420.4,168,416,168z M480,136c-4.4,0-8-3.6-8-8s3.6-8,8-8s8,3.6,8,8
		C488,132.4,484.4,136,480,136z M128,408c4.4,0,8,3.6,8,8s-3.6,8-8,8s-8-3.6-8-8S123.6,408,128,408z M144,344c4.4,0,8,3.6,8,8
		s-3.6,8-8,8s-8-3.6-8-8S139.6,344,144,344z M160,280c4.4,0,8,3.6,8,8s-3.6,8-8,8s-8-3.6-8-8S155.6,280,160,280z M216,296v-16h32v16
		H216z M216,360v-16h32v16H216z M216,424v-16h32v16H216z M408,216h16v32h-16V216z M360,248h-16v-32h16V248z M328,215.3V248h-16
		v-26.1C317.7,220.4,323,218.2,328,215.3z M24,160c0-23.7,17.7-44.1,41.2-47.4l6.8-1.6V104c0-22.1,17.9-40,40-40
		c5.5,0,10.9,1.1,16,3.4l8.1,3.5l2.8-8.4c7.6-23,28.9-38.5,53.2-38.5c28.5,0,52.4,21.4,55.6,49.7l1,8.5l8.4-1.5
		c2.5-0.4,4.8-0.7,7-0.7c17.6,0,33,11.3,38.2,28.2l1.3,4.3l4.3,1.1C329.2,119,344,138.1,344,160c0,26.5-21.5,48-48,48H72
		C45.5,208,24,186.5,24,160z M280,224h16v24h-16V224z M296,488h-16v-32h16V488z M360,488h-16v-32h16V488z M424,488h-16v-32h16V488z
		 M264,440V264h176l0,176H264z M488,408v16h-32v-16H488z M488,344v16h-32v-16H488z M488,280v16h-32v-16H488z"/>
	<path class="st0" d="M128.2,160h31.5l8.5,33.9l15.5-3.9L158.2,88h-28.5l-25.5,102.1l15.5,3.9L128.2,160z M145.8,104l10,40h-23.5
		l10-40H145.8z"/>
	<path class="st0" d="M248,176h-16v-72h16V88h-48v16h16v72h-16v16h48V176z"/>
</g>
</svg>
